<?xml version="1.0" encoding="UTF-8"?>
<svg xmlns="http://www.w3.org/2000/svg" xmlns:xlink="http://www.w3.org/1999/xlink" width="20pt" height="20pt" viewBox="0 0 20 20" version="1.1">
<g id="surface1">
<path style=" stroke:none;fill-rule:nonzero;fill:rgb(0%,0%,0%);fill-opacity:1;" d="M 9.53125 0.0078125 C 8.808594 0.0585938 8.375 0.117188 7.828125 0.234375 C 6.476562 0.535156 5.144531 1.144531 4.03125 1.976562 C 1.835938 3.617188 0.410156 6.058594 0.078125 8.75 C 0.03125 9.148438 0.015625 9.351562 0.00390625 9.789062 C -0.0273438 11.207031 0.242188 12.605469 0.800781 13.925781 C 0.914062 14.199219 1.210938 14.78125 1.359375 15.039062 C 2.804688 17.503906 5.25 19.25 8.03125 19.804688 C 10.410156 20.277344 12.855469 19.882812 14.945312 18.6875 C 15.535156 18.351562 16.074219 17.96875 16.585938 17.523438 C 16.824219 17.320312 17.292969 16.847656 17.511719 16.601562 C 19.359375 14.488281 20.234375 11.746094 19.945312 8.953125 C 19.839844 7.957031 19.59375 7 19.195312 6.0625 C 19.082031 5.800781 18.789062 5.210938 18.640625 4.960938 C 17.152344 2.421875 14.617188 0.65625 11.734375 0.148438 C 11.183594 0.0546875 10.757812 0.015625 10.125 0.0078125 C 9.84375 0.0078125 9.578125 0.0078125 9.53125 0.0078125 Z M 10.429688 0.90625 C 12.46875 1.015625 14.289062 1.726562 15.859375 3.039062 C 16.125 3.257812 16.675781 3.804688 16.90625 4.070312 C 17.984375 5.332031 18.703125 6.863281 18.976562 8.480469 C 19.296875 10.363281 19.011719 12.304688 18.171875 14.007812 C 17.71875 14.925781 17.171875 15.683594 16.4375 16.421875 C 15.90625 16.957031 15.421875 17.34375 14.804688 17.726562 C 13.585938 18.492188 12.25 18.933594 10.765625 19.070312 C 10.371094 19.109375 9.628906 19.109375 9.234375 19.070312 C 7.683594 18.929688 6.304688 18.453125 5.039062 17.628906 C 3.316406 16.5 2.023438 14.835938 1.375 12.90625 C 0.726562 10.976562 0.734375 8.945312 1.398438 7.019531 C 1.753906 5.988281 2.300781 5.027344 3.039062 4.140625 C 3.28125 3.84375 3.851562 3.277344 4.148438 3.03125 C 5.082031 2.253906 6.066406 1.707031 7.203125 1.335938 C 8.21875 1.003906 9.367188 0.851562 10.429688 0.90625 Z M 10.429688 0.90625 "/>
<path style=" stroke:none;fill-rule:nonzero;fill:rgb(0%,0%,0%);fill-opacity:1;" d="M 4.859375 5.976562 L 4.859375 6.421875 L 7.953125 6.421875 L 7.953125 5.53125 L 4.859375 5.53125 Z M 4.859375 5.976562 "/>
<path style=" stroke:none;fill-rule:nonzero;fill:rgb(0%,0%,0%);fill-opacity:1;" d="M 11.9375 5.976562 L 11.9375 6.421875 L 15.03125 6.421875 L 15.03125 5.53125 L 11.9375 5.53125 Z M 11.9375 5.976562 "/>
<path style=" stroke:none;fill-rule:nonzero;fill:rgb(0%,0%,0%);fill-opacity:1;" d="M 6.210938 7.195312 C 5.914062 7.265625 5.679688 7.5 5.601562 7.796875 C 5.570312 7.90625 5.570312 8.109375 5.601562 8.21875 C 5.671875 8.480469 5.890625 8.710938 6.148438 8.796875 C 6.679688 8.972656 7.234375 8.570312 7.238281 8.015625 C 7.242188 7.863281 7.210938 7.753906 7.140625 7.617188 C 7.03125 7.40625 6.8125 7.238281 6.582031 7.1875 C 6.476562 7.167969 6.3125 7.167969 6.210938 7.195312 Z M 6.210938 7.195312 "/>
<path style=" stroke:none;fill-rule:nonzero;fill:rgb(0%,0%,0%);fill-opacity:1;" d="M 13.285156 7.195312 C 12.996094 7.265625 12.765625 7.492188 12.679688 7.78125 C 12.664062 7.832031 12.65625 7.921875 12.65625 8.007812 C 12.65625 8.242188 12.71875 8.402344 12.886719 8.578125 C 13.136719 8.84375 13.511719 8.914062 13.84375 8.757812 C 14.054688 8.65625 14.242188 8.425781 14.296875 8.203125 C 14.320312 8.101562 14.316406 7.894531 14.289062 7.792969 C 14.222656 7.53125 14.015625 7.308594 13.757812 7.21875 C 13.640625 7.175781 13.402344 7.164062 13.285156 7.195312 Z M 13.285156 7.195312 "/>
<path style=" stroke:none;fill-rule:nonzero;fill:rgb(0%,0%,0%);fill-opacity:1;" d="M 5.953125 13.160156 L 5.953125 13.703125 L 14.046875 13.703125 L 14.046875 12.617188 L 5.953125 12.617188 Z M 5.953125 13.160156 "/>
</g>
</svg>
