<?xml version="1.0" encoding="UTF-8"?>
<svg xmlns="http://www.w3.org/2000/svg" xmlns:xlink="http://www.w3.org/1999/xlink" width="20pt" height="20pt" viewBox="0 0 20 20" version="1.1">
<g id="surface1">
<path style=" stroke:none;fill-rule:nonzero;fill:rgb(0%,0%,0%);fill-opacity:1;" d="M 17.609375 11.226562 C 18.15625 10.914062 18.527344 10.320312 18.527344 9.648438 C 18.527344 9.160156 18.335938 8.703125 17.992188 8.359375 C 17.648438 8.015625 17.191406 7.824219 16.703125 7.824219 L 11.929688 7.824219 C 11.492188 7.824219 11.101562 7.597656 10.882812 7.222656 C 10.664062 6.851562 10.660156 6.40625 10.871094 6.03125 C 11.632812 4.671875 11.953125 3.132812 11.875 2.3125 C 11.738281 0.90625 10.808594 -0.0429688 9.605469 0 L 9.570312 0.00390625 C 8.761719 0.0351562 8.117188 0.671875 8.070312 1.484375 C 7.96875 3.238281 6.546875 5.027344 5.222656 6.570312 C 4.804688 7.054688 4.453125 7.589844 4.183594 8.164062 C 4.109375 8.328125 3.988281 8.460938 3.839844 8.558594 C 3.6875 8.652344 3.515625 8.703125 3.335938 8.703125 L 1.808594 8.703125 C 1.625 8.703125 1.472656 8.855469 1.472656 9.039062 L 1.472656 18.964844 C 1.472656 19.148438 1.625 19.300781 1.808594 19.300781 C 2.75 19.300781 3.683594 19.433594 4.585938 19.695312 C 5.273438 19.898438 5.988281 20 6.703125 20 L 15.136719 20 C 15.570312 20 15.976562 19.832031 16.285156 19.523438 C 16.597656 19.210938 16.765625 18.792969 16.757812 18.351562 C 16.753906 17.964844 16.605469 17.609375 16.371094 17.332031 C 17.097656 17.09375 17.628906 16.410156 17.628906 15.601562 C 17.628906 15.101562 17.429688 14.652344 17.105469 14.320312 C 17.78125 14.054688 18.261719 13.394531 18.261719 12.625 C 18.261719 12.0625 18.007812 11.5625 17.609375 11.226562 Z M 16.441406 13.777344 L 15.804688 13.777344 C 15.621094 13.777344 15.46875 13.925781 15.46875 14.113281 C 15.46875 14.296875 15.621094 14.445312 15.804688 14.445312 C 16.441406 14.445312 16.957031 14.964844 16.957031 15.601562 C 16.957031 16.234375 16.441406 16.753906 15.804688 16.753906 L 15.105469 16.753906 C 14.921875 16.753906 14.769531 16.902344 14.769531 17.089844 C 14.769531 17.273438 14.921875 17.421875 15.105469 17.421875 C 15.640625 17.421875 16.082031 17.84375 16.089844 18.359375 C 16.09375 18.621094 15.992188 18.867188 15.808594 19.050781 C 15.628906 19.230469 15.390625 19.328125 15.136719 19.328125 L 6.703125 19.328125 C 6.050781 19.328125 5.402344 19.238281 4.773438 19.054688 C 3.917969 18.804688 3.035156 18.664062 2.144531 18.636719 L 2.144531 9.375 L 3.335938 9.375 C 3.640625 9.375 3.941406 9.289062 4.199219 9.125 C 4.457031 8.960938 4.660156 8.726562 4.792969 8.449219 C 5.035156 7.929688 5.351562 7.445312 5.730469 7.003906 C 7.125 5.382812 8.625 3.484375 8.738281 1.523438 C 8.765625 1.054688 9.132812 0.691406 9.59375 0.671875 L 9.628906 0.671875 C 10.332031 0.644531 11.089844 1.160156 11.207031 2.375 C 11.261719 2.933594 11.054688 4.328125 10.285156 5.703125 C 9.957031 6.285156 9.964844 6.980469 10.304688 7.5625 C 10.644531 8.144531 11.253906 8.496094 11.929688 8.496094 L 16.703125 8.496094 C 17.011719 8.496094 17.300781 8.613281 17.519531 8.832031 C 17.734375 9.050781 17.855469 9.339844 17.855469 9.648438 C 17.855469 10.285156 17.339844 10.800781 16.703125 10.800781 L 16.441406 10.800781 C 16.253906 10.800781 16.105469 10.949219 16.105469 11.136719 C 16.105469 11.320312 16.253906 11.46875 16.441406 11.46875 C 17.074219 11.46875 17.59375 11.988281 17.59375 12.625 C 17.59375 13.257812 17.074219 13.777344 16.441406 13.777344 Z M 16.441406 13.777344 "/>
</g>
</svg>
